<svg width="1920" height="1080" viewBox="0 0 1920 1080" fill="none" xmlns="http://www.w3.org/2000/svg">
<path d="M62.0504 72.63C61.7969 76.6611 60.6263 80.6489 60.6053 84.6479C60.5591 95.4358 58.7274 106.152 57.8 116.893C57.1998 123.888 57.0708 130.936 55.7874 137.921C54.4887 144.969 55.2138 145.572 64.4199 146.767C72.0548 147.759 79.716 148.667 87.3683 149.613L87.3897 149.523C95.9946 150.587 104.579 151.763 113.214 152.677C118.933 153.279 119.32 152.871 120.231 148.557C121.431 142.864 122.513 137.169 122.502 131.396C122.495 129.966 122.768 128.528 123.048 127.107C123.443 125.105 125.134 124.065 127.825 123.981C129.177 123.938 130.542 123.989 131.891 124.055C141.93 124.559 151.936 125.223 162.033 125.384C170.129 125.513 178.237 126.454 186.388 126.572C196.654 126.72 206.836 127.663 217.13 127.818C225.786 127.95 234.507 128.8 243.213 129.193C249.521 129.482 250.823 128.684 251.609 124.153C253.995 110.446 257.21 96.8327 260.402 83.2165C262.123 75.8828 261.783 75.7488 251.996 75.2531C241.182 74.7049 230.319 74.9046 219.522 73.938C212.63 73.3224 205.558 73.7324 198.624 73.2695C189.56 72.6702 180.448 73.0118 171.39 72.2338C164.285 71.6225 157.067 71.655 149.897 71.3864C135.593 70.8494 121.293 70.1467 106.971 69.8089C96.9044 69.5719 86.9011 68.4493 76.7787 68.8631C74.2962 68.9642 71.7766 68.4771 69.2681 68.3159C64.0421 67.9768 62.2846 68.8506 62.0504 72.63Z" fill="#E2C21D"/>
<path d="M1875.62 905.126C1875 901.117 1875.28 897.043 1874.43 893.093C1872.13 882.439 1871.6 871.645 1870.17 860.934C1869.24 853.96 1867.83 846.987 1867.57 839.941C1867.32 832.831 1866.47 832.322 1857.12 832.228C1849.37 832.149 1841.61 832.156 1833.85 832.125L1833.85 832.216C1825.13 832.18 1816.4 832.033 1807.67 832.149C1801.9 832.229 1801.6 832.678 1801.65 837.043C1801.7 842.804 1801.88 848.553 1803.14 854.25C1803.46 855.66 1803.51 857.112 1803.54 858.548C1803.59 860.57 1802.15 861.796 1799.51 862.196C1798.18 862.398 1796.82 862.509 1795.48 862.603C1785.46 863.289 1775.44 863.814 1765.44 864.846C1757.42 865.674 1749.21 865.701 1741.14 866.545C1730.97 867.611 1720.72 867.881 1710.52 868.942C1701.95 869.832 1693.15 870.021 1684.48 870.66C1678.19 871.119 1677.08 872.061 1677.29 876.625C1677.92 890.437 1677.71 904.253 1677.53 918.069C1677.43 925.511 1677.8 925.603 1687.56 924.938C1698.36 924.204 1709.04 922.726 1719.91 922.406C1726.84 922.201 1733.73 920.962 1740.68 920.602C1749.76 920.124 1758.68 918.712 1767.79 918.412C1774.93 918.177 1782.05 917.294 1789.19 916.714C1803.42 915.557 1817.69 914.564 1831.9 913.208C1841.89 912.255 1852.01 912.183 1861.91 910.581C1864.34 910.189 1866.93 910.372 1869.44 910.236C1874.67 909.954 1876.22 908.884 1875.62 905.126Z" fill="#E2C21D"/>
<path d="M0 19.6035L1920 156.192V955.491L0 1080V19.6035Z" fill="#FFDA1D"/>
<path d="M1738.53 285.564C1738.53 277.514 1732.18 270.899 1724.14 270.576L186.918 208.778C178.404 208.435 171.315 215.245 171.315 223.766V856.847C171.315 865.468 178.564 872.315 187.171 871.823L1724.39 783.932C1732.33 783.478 1738.53 776.908 1738.53 768.956V285.564Z" fill="#FFE356"/>
<path d="M1864.92 202.488C1864.53 206.514 1865.06 210.575 1864.44 214.548C1862.78 225.266 1862.9 236.067 1862.11 246.814C1861.6 253.812 1860.61 260.824 1860.77 267.871C1860.95 274.982 1860.13 275.518 1850.8 275.915C1843.06 276.245 1835.3 276.489 1827.55 276.771L1827.55 276.68C1818.83 276.998 1810.12 277.428 1801.4 277.595C1795.62 277.701 1795.3 277.263 1795.08 272.901C1794.8 267.143 1794.62 261.394 1795.55 255.662C1795.79 254.242 1795.74 252.79 1795.69 251.355C1795.62 249.333 1794.1 248.155 1791.44 247.841C1790.11 247.682 1788.74 247.615 1787.39 247.564C1777.34 247.204 1767.3 247.003 1757.24 246.296C1749.18 245.729 1740.98 245.968 1732.87 245.385C1722.65 244.65 1712.39 244.712 1702.14 243.982C1693.52 243.371 1684.72 243.466 1676.02 243.109C1669.7 242.854 1668.54 241.949 1668.48 237.382C1668.28 223.564 1667.25 209.768 1666.24 195.971C1665.7 188.539 1666.06 188.435 1675.85 188.783C1686.68 189.167 1697.44 190.299 1708.32 190.266C1715.26 190.246 1722.22 191.261 1729.18 191.396C1738.27 191.579 1747.27 192.701 1756.39 192.706C1763.54 192.709 1770.71 193.361 1777.87 193.71C1792.16 194.405 1806.47 194.935 1820.75 195.829C1830.79 196.458 1840.9 196.202 1850.89 197.483C1853.34 197.796 1855.92 197.529 1858.43 197.584C1863.68 197.696 1865.28 198.715 1864.92 202.488Z" fill="#FFE356"/>
<path d="M1864.92 202.488C1864.53 206.514 1865.06 210.575 1864.44 214.548C1862.78 225.266 1862.9 236.067 1862.11 246.814C1861.6 253.812 1860.61 260.824 1860.77 267.871C1860.95 274.982 1860.13 275.518 1850.8 275.915C1843.06 276.245 1835.3 276.489 1827.55 276.771L1827.55 276.68C1818.83 276.998 1810.12 277.428 1801.4 277.595C1795.62 277.701 1795.3 277.263 1795.08 272.901C1794.8 267.143 1794.62 261.394 1795.55 255.662C1795.79 254.242 1795.74 252.79 1795.69 251.355C1795.62 249.333 1794.1 248.155 1791.44 247.841C1790.11 247.682 1788.74 247.615 1787.39 247.564C1777.34 247.204 1767.3 247.003 1757.24 246.296C1749.18 245.729 1740.98 245.968 1732.87 245.385C1722.65 244.65 1712.39 244.712 1702.14 243.982C1693.52 243.371 1684.72 243.466 1676.02 243.109C1669.7 242.854 1668.54 241.949 1668.48 237.382C1668.28 223.564 1667.25 209.768 1666.24 195.971C1665.7 188.539 1666.06 188.435 1675.85 188.783C1686.68 189.167 1697.44 190.299 1708.32 190.266C1715.26 190.246 1722.22 191.261 1729.18 191.396C1738.27 191.579 1747.27 192.701 1756.39 192.706C1763.54 192.709 1770.71 193.361 1777.87 193.71C1792.16 194.405 1806.47 194.935 1820.75 195.829C1830.79 196.458 1840.9 196.202 1850.89 197.483C1853.34 197.796 1855.92 197.529 1858.43 197.584C1863.68 197.696 1865.28 198.715 1864.92 202.488Z" fill="#FFE356"/>
<path d="M67.3718 1007.6C67.0916 1003.57 65.8946 999.584 65.8472 995.585C65.7298 984.798 63.8272 974.088 62.8288 963.351C62.1825 956.358 62.0069 949.31 60.6773 942.33C59.3321 935.287 60.0532 934.682 69.2512 933.454C76.8795 932.434 84.5346 931.499 92.1806 930.526L92.2025 930.615C100.8 929.52 109.377 928.314 118.005 927.369C123.72 926.747 124.11 927.154 125.05 931.464C126.288 937.153 127.407 942.844 127.435 948.617C127.437 950.046 127.719 951.484 128.009 952.904C128.417 954.904 130.114 955.938 132.806 956.012C134.158 956.05 135.523 955.995 136.872 955.924C146.907 955.384 156.909 954.685 167.005 954.487C175.099 954.329 183.202 953.359 191.352 953.212C201.616 953.028 211.792 952.048 222.085 951.856C230.74 951.693 239.455 950.812 248.159 950.388C254.464 950.076 255.772 950.87 256.588 955.398C259.064 969.096 262.369 982.698 265.651 996.302C267.421 1003.63 267.081 1003.77 257.298 1004.3C246.488 1004.88 235.623 1004.72 224.833 1005.73C217.945 1006.37 210.871 1005.98 203.94 1006.47C194.879 1007.1 185.765 1006.79 176.713 1007.6C169.612 1008.24 162.393 1008.23 155.226 1008.53C140.926 1009.12 126.631 1009.87 112.311 1010.26C102.246 1010.53 92.2498 1011.69 82.1248 1011.31C79.6416 1011.22 77.1253 1011.72 74.6179 1011.89C69.3942 1012.24 67.6309 1011.38 67.3718 1007.6Z" fill="#FFE356"/>
<path d="M67.3718 1007.6C67.0916 1003.57 65.8946 999.584 65.8472 995.585C65.7298 984.798 63.8272 974.088 62.8288 963.351C62.1825 956.358 62.0069 949.31 60.6773 942.33C59.3321 935.287 60.0532 934.682 69.2512 933.454C76.8795 932.434 84.5346 931.499 92.1806 930.526L92.2025 930.615C100.8 929.52 109.377 928.314 118.005 927.369C123.72 926.747 124.11 927.154 125.05 931.464C126.288 937.153 127.407 942.844 127.435 948.617C127.437 950.046 127.719 951.484 128.009 952.904C128.417 954.904 130.114 955.938 132.806 956.012C134.158 956.05 135.523 955.995 136.872 955.924C146.907 955.384 156.909 954.685 167.005 954.487C175.099 954.329 183.202 953.359 191.352 953.212C201.616 953.028 211.792 952.048 222.085 951.856C230.74 951.693 239.455 950.812 248.159 950.388C254.464 950.076 255.772 950.87 256.588 955.398C259.064 969.096 262.369 982.698 265.651 996.302C267.421 1003.63 267.081 1003.77 257.298 1004.3C246.488 1004.88 235.623 1004.72 224.833 1005.73C217.945 1006.37 210.871 1005.98 203.94 1006.47C194.879 1007.1 185.765 1006.79 176.713 1007.6C169.612 1008.24 162.393 1008.23 155.226 1008.53C140.926 1009.12 126.631 1009.87 112.311 1010.26C102.246 1010.53 92.2498 1011.69 82.1248 1011.31C79.6416 1011.22 77.1253 1011.72 74.6179 1011.89C69.3942 1012.24 67.6309 1011.38 67.3718 1007.6Z" fill="#FFE356"/>
</svg>
